<svg width="19" height="15" viewBox="0 0 19 15" fill="none" xmlns="http://www.w3.org/2000/svg">
<path d="M18.8398 7.53665C18.8398 7.78075 18.7324 8.00535 18.5371 8.19095L12.0527 14.6752C11.8477 14.8608 11.6426 14.9389 11.418 14.9389C10.9297 14.9389 10.5586 14.5874 10.5586 14.0991C10.5586 13.8745 10.6465 13.6401 10.8028 13.4838L12.9805 11.2573L16.2812 8.25925L13.9082 8.41555H1.56447C1.05667 8.41555 0.705074 8.04445 0.705074 7.53665C0.705074 7.02885 1.05667 6.66745 1.56447 6.66745H13.9082L16.2715 6.81395L12.9805 3.81592L10.8028 1.59913C10.6367 1.43311 10.5586 1.2085 10.5586 0.974127C10.5586 0.495607 10.9297 0.134277 11.418 0.134277C11.6426 0.134277 11.8574 0.222168 12.0723 0.427248L18.5371 6.88235C18.7324 7.07765 18.8398 7.30225 18.8398 7.53665Z" fill="white"/>
</svg>
