<svg width="195" height="47" viewBox="0 0 195 47" fill="none" xmlns="http://www.w3.org/2000/svg">
<path d="M25.9025 4.03164C25.9731 4.15123 25.8797 4.29907 25.7408 4.29907C22.9289 4.29907 20.6431 6.5253 20.5895 9.29167C19.6266 9.1119 18.629 9.09839 17.6434 9.26445C17.5753 6.51071 15.2953 4.29907 12.4927 4.29907C12.3537 4.29907 12.2602 4.15112 12.3309 4.03144C13.692 1.72622 16.2213 0.177246 19.1166 0.177246C22.012 0.177246 24.5414 1.72631 25.9025 4.03164Z" fill="url(#paint0_linear_3470_79893)"/>
<path d="M34.2305 21.141C35.1869 21.4307 36.0882 20.5901 35.7272 19.6582C33.0448 12.7329 25.1053 9.89572 19.0781 9.89572C13.0392 9.89572 4.9228 12.8246 2.41502 19.7014C2.07739 20.6272 2.97626 21.4401 3.9185 21.1514L18.3624 16.7254C18.7794 16.5977 19.2249 16.5969 19.6423 16.7233L34.2305 21.141Z" fill="url(#paint1_linear_3470_79893)"/>
<path d="M2.27403 22.4743L18.3746 17.5912C18.789 17.4655 19.2314 17.4652 19.646 17.5902L35.8477 22.4767C37.2007 22.8847 38.1265 24.131 38.1265 25.5441V40.2666C38.0637 43.8603 34.8354 46.7407 31.2429 46.7407H25.276C24.6862 46.7407 24.2085 46.2636 24.2085 45.6738V40.5119C24.2085 38.4794 25.4114 36.6397 27.2729 35.8255C29.7681 34.734 32.72 33.2577 33.2752 30.2951C33.4544 29.3388 32.8309 28.4165 31.8771 28.2269C29.4654 27.7475 26.7918 27.9327 24.5309 28.9439C21.9642 30.092 21.2928 32.0016 21.0442 34.5662L20.7429 37.3291C20.6508 38.1735 19.8592 38.8204 19.0101 38.8204C18.1318 38.8204 17.4732 38.1515 17.378 37.2779L17.0823 34.5662C16.8694 32.3695 16.4834 30.2356 14.2125 29.2198C11.622 28.0612 9.01874 27.6764 6.24938 28.2269C5.29562 28.4165 4.6721 29.3388 4.8513 30.2951C5.41136 33.2835 8.34006 34.726 10.8536 35.8255C12.7151 36.6397 13.918 38.4794 13.918 40.5119V45.6729C13.918 46.2627 13.4405 46.7407 12.8507 46.7407H6.88354C3.29106 46.7407 0.0627412 43.8603 0 40.2666V25.5403C0 24.129 0.923478 22.8839 2.27403 22.4743Z" fill="url(#paint2_linear_3470_79893)"/>
<path d="M50.0674 41.0564V15.1099H62.133C65.004 15.1099 67.2192 15.711 68.7784 16.9132C70.3377 18.1155 71.1173 19.7594 71.1173 21.8449C71.1173 23.3907 70.647 24.7033 69.7065 25.7829C68.7908 26.8625 67.5285 27.5863 65.9198 27.9543V27.3655C67.8008 27.6844 69.2487 28.396 70.2634 29.5001C71.3029 30.5797 71.8227 31.9905 71.8227 33.7325C71.8227 36.0389 70.9935 37.8422 69.3353 39.1426C67.7018 40.4185 65.4372 41.0564 62.5414 41.0564H50.0674ZM55.599 36.7872H61.836C63.2715 36.7872 64.3729 36.5173 65.1402 35.9775C65.9074 35.4377 66.291 34.579 66.291 33.4013C66.291 32.199 65.9074 31.3403 65.1402 30.825C64.3729 30.2852 63.2715 30.0153 61.836 30.0153H55.599V36.7872ZM55.599 25.7829H61.0935C62.6033 25.7829 63.717 25.513 64.4348 24.9732C65.1525 24.4334 65.5114 23.6238 65.5114 22.5442C65.5114 21.4892 65.1525 20.6917 64.4348 20.152C63.717 19.6122 62.6033 19.3423 61.0935 19.3423H55.599V25.7829Z" fill="white"/>
<path d="M75.5088 41.0564V27.3287C75.5088 26.519 75.484 25.697 75.4345 24.8628C75.4098 24.0286 75.3479 23.2067 75.2489 22.397H80.632L81.2631 27.8439H80.4093C80.6568 26.519 81.0528 25.4271 81.5973 24.5684C82.1665 23.7096 82.8595 23.0717 83.6763 22.6546C84.5178 22.2375 85.4707 22.0289 86.5349 22.0289C87.0052 22.0289 87.3764 22.0535 87.6487 22.1026C87.9209 22.1271 88.1932 22.1884 88.4654 22.2866L88.4283 27.1815C87.9085 26.9606 87.463 26.8257 87.0918 26.7766C86.7453 26.703 86.2998 26.6662 85.7553 26.6662C84.7158 26.6662 83.8495 26.8625 83.1565 27.2551C82.4883 27.6476 81.9809 28.2242 81.6344 28.9848C81.3127 29.7454 81.1518 30.6655 81.1518 31.7451V41.0564H75.5088Z" fill="white"/>
<path d="M97.9416 41.4613C96.3081 41.4613 94.8726 41.0687 93.6351 40.2835C92.3976 39.4984 91.4323 38.382 90.7393 36.9344C90.0463 35.4868 89.6998 33.7448 89.6998 31.7083C89.6998 29.6964 90.0463 27.9666 90.7393 26.519C91.4323 25.0714 92.3976 23.9673 93.6351 23.2067C94.8726 22.4215 96.3081 22.0289 97.9416 22.0289C99.4513 22.0289 100.8 22.397 101.988 23.1331C103.201 23.8446 103.993 24.8138 104.364 26.0405H103.956L104.401 22.397H109.784C109.71 23.2067 109.636 24.0286 109.562 24.8628C109.512 25.6725 109.487 26.4699 109.487 27.2551V41.0564H103.919L103.882 37.5601H104.327C103.931 38.7378 103.139 39.6824 101.951 40.394C100.763 41.1055 99.4266 41.4613 97.9416 41.4613ZM99.6493 37.2656C100.936 37.2656 101.976 36.8117 102.768 35.9039C103.56 34.9961 103.956 33.5976 103.956 31.7083C103.956 29.819 103.56 28.4328 102.768 27.5495C101.976 26.6662 100.936 26.2246 99.6493 26.2246C98.3623 26.2246 97.3228 26.6662 96.5308 27.5495C95.7388 28.4328 95.3428 29.819 95.3428 31.7083C95.3428 33.5976 95.7264 34.9961 96.4937 35.9039C97.2857 36.8117 98.3376 37.2656 99.6493 37.2656Z" fill="white"/>
<path d="M121.399 41.4613C119.765 41.4613 118.33 41.0687 117.092 40.2835C115.855 39.4984 114.889 38.382 114.196 36.9344C113.503 35.4868 113.157 33.7448 113.157 31.7083C113.157 29.6964 113.503 27.9666 114.196 26.519C114.889 25.0714 115.855 23.9673 117.092 23.2067C118.33 22.4215 119.765 22.0289 121.399 22.0289C122.908 22.0289 124.257 22.397 125.445 23.1331C126.658 23.8446 127.45 24.8138 127.821 26.0405H127.413L127.858 22.397H133.241C133.167 23.2067 133.093 24.0286 133.019 24.8628C132.969 25.6725 132.944 26.4699 132.944 27.2551V41.0564H127.376L127.339 37.5601H127.784C127.388 38.7378 126.596 39.6824 125.408 40.394C124.22 41.1055 122.884 41.4613 121.399 41.4613ZM123.106 37.2656C124.393 37.2656 125.433 36.8117 126.225 35.9039C127.017 34.9961 127.413 33.5976 127.413 31.7083C127.413 29.819 127.017 28.4328 126.225 27.5495C125.433 26.6662 124.393 26.2246 123.106 26.2246C121.819 26.2246 120.78 26.6662 119.988 27.5495C119.196 28.4328 118.8 29.819 118.8 31.7083C118.8 33.5976 119.183 34.9961 119.951 35.9039C120.743 36.8117 121.795 37.2656 123.106 37.2656Z" fill="white"/>
<path d="M142.818 41.0564L134.688 22.397H140.59L145.974 35.9407H144.748L150.317 22.397H155.849L147.644 41.0564H142.818Z" fill="white"/>
<path d="M166.283 41.4613C164.279 41.4613 162.534 41.0687 161.049 40.2835C159.588 39.4739 158.45 38.3452 157.633 36.8976C156.841 35.45 156.445 33.7202 156.445 31.7083C156.445 29.7209 156.841 28.0034 157.633 26.5558C158.45 25.1082 159.588 23.9918 161.049 23.2067C162.534 22.4215 164.279 22.0289 166.283 22.0289C168.288 22.0289 170.033 22.4215 171.518 23.2067C173.003 23.9918 174.141 25.1082 174.933 26.5558C175.75 28.0034 176.159 29.7209 176.159 31.7083C176.159 33.7202 175.75 35.45 174.933 36.8976C174.141 38.3452 173.003 39.4739 171.518 40.2835C170.033 41.0687 168.288 41.4613 166.283 41.4613ZM166.283 37.2656C167.57 37.2656 168.585 36.8117 169.328 35.9039C170.095 34.9961 170.478 33.5976 170.478 31.7083C170.478 29.819 170.095 28.4328 169.328 27.5495C168.585 26.6662 167.57 26.2246 166.283 26.2246C164.996 26.2246 163.969 26.6662 163.202 27.5495C162.459 28.4328 162.088 29.819 162.088 31.7083C162.088 33.5976 162.459 34.9961 163.202 35.9039C163.969 36.8117 164.996 37.2656 166.283 37.2656Z" fill="white"/>
<path d="M186.721 41.4613C185.038 41.4613 183.504 41.2772 182.118 40.9092C180.732 40.5412 179.556 40.0259 178.591 39.3635L180.039 35.6831C181.004 36.272 182.068 36.7381 183.231 37.0816C184.419 37.4251 185.595 37.5969 186.758 37.5969C187.847 37.5969 188.652 37.4251 189.171 37.0816C189.691 36.7381 189.951 36.272 189.951 35.6831C189.951 35.1924 189.778 34.8121 189.431 34.5422C189.11 34.2723 188.602 34.076 187.909 33.9533L184.085 33.2541C182.477 32.9351 181.251 32.3462 180.41 31.4875C179.568 30.6287 179.148 29.5124 179.148 28.1383C179.148 26.9361 179.469 25.8811 180.113 24.9732C180.781 24.0409 181.734 23.3171 182.972 22.8018C184.209 22.2866 185.657 22.0289 187.315 22.0289C188.726 22.0289 190.062 22.2007 191.325 22.5442C192.587 22.8877 193.664 23.4152 194.555 24.1268L193.032 27.6967C192.265 27.1324 191.374 26.6785 190.359 26.335C189.369 25.9915 188.417 25.8197 187.501 25.8197C186.313 25.8197 185.459 26.016 184.939 26.4086C184.419 26.7766 184.16 27.2551 184.16 27.8439C184.16 28.2856 184.308 28.6536 184.605 28.948C184.927 29.2425 185.409 29.4633 186.053 29.6105L189.914 30.3098C191.572 30.6042 192.834 31.1562 193.701 31.9659C194.567 32.7756 195 33.892 195 35.3151C195 36.6154 194.654 37.7196 193.961 38.6274C193.268 39.5352 192.29 40.2345 191.028 40.7252C189.79 41.2159 188.355 41.4613 186.721 41.4613Z" fill="white"/>
<defs>
<linearGradient id="paint0_linear_3470_79893" x1="18.6895" y1="-2.33718" x2="35.4067" y2="46.962" gradientUnits="userSpaceOnUse">
<stop stop-color="#F5B75E"/>
<stop offset="1" stop-color="#FF9600"/>
</linearGradient>
<linearGradient id="paint1_linear_3470_79893" x1="18.6895" y1="-2.33718" x2="35.4067" y2="46.962" gradientUnits="userSpaceOnUse">
<stop stop-color="#F5B75E"/>
<stop offset="1" stop-color="#FF9600"/>
</linearGradient>
<linearGradient id="paint2_linear_3470_79893" x1="18.6895" y1="-2.33718" x2="35.4067" y2="46.962" gradientUnits="userSpaceOnUse">
<stop stop-color="#F5B75E"/>
<stop offset="1" stop-color="#FF9600"/>
</linearGradient>
</defs>
</svg>
