<svg width="100" height="100" viewBox="0 0 100 100" fill="none" xmlns="http://www.w3.org/2000/svg">
<path d="M62.7058 13.9116C62.8367 14.1333 62.6628 14.407 62.4046 14.407C57.1814 14.407 52.9355 18.5427 52.8358 23.6817C51.0473 23.3477 49.1941 23.3226 47.3633 23.6311C47.2369 18.5156 43.0016 14.407 37.7956 14.407C37.5372 14.407 37.3632 14.1331 37.4942 13.9112C40.0224 9.62809 44.7211 6.75 50.0999 6.75C55.4788 6.75 60.1776 9.62826 62.7058 13.9116Z" fill="url(#paint0_linear_5067_116295)"/>
<path d="M78.7614 45.8718C80.2733 46.3297 81.7032 45.0055 81.1721 43.5222C76.4144 30.2334 61.3918 24.8039 50.0284 24.8039C38.645 24.8039 23.2875 30.407 18.8761 43.5912C18.3831 45.0645 19.8091 46.3446 21.2986 45.8881L48.8727 37.4381C49.5339 37.2355 50.2406 37.2344 50.9024 37.4348L78.7614 45.8718Z" fill="url(#paint1_linear_5067_116295)"/>
<path d="M18.814 48.1707L48.8942 39.0472C49.5514 38.8478 50.2531 38.8473 50.9106 39.0456L81.1788 48.1752C83.6919 48.9332 85.4117 51.2483 85.4117 53.8735V81.2233C85.2952 87.8991 79.2984 93.25 72.6252 93.25H61.5413C60.4457 93.25 59.5584 92.3637 59.5584 91.268V81.6789C59.5584 77.9031 61.7929 74.4855 65.2506 72.9729C69.8856 70.9454 75.3688 68.2028 76.4002 62.6992C76.7331 60.9229 75.5748 59.2094 73.8032 58.8573C69.3234 57.9667 64.3569 58.3107 60.1572 60.1893C55.3894 62.3219 54.1422 65.8694 53.6805 70.6337L53.1209 75.7662C52.9498 77.3349 51.4793 78.5366 49.9021 78.5366C48.2706 78.5366 47.0473 77.294 46.8703 75.6712L46.3211 70.6337C45.9256 66.5529 45.2087 62.5887 40.9902 60.7018C36.1783 58.5494 31.3426 57.8347 26.1984 58.8573C24.4267 59.2094 23.2685 60.9229 23.6014 62.6992C24.6417 68.2507 30.0819 70.9305 34.751 72.9729C38.2087 74.4855 40.4432 77.9031 40.4432 81.6789V91.2663C40.4432 92.362 39.5562 93.25 38.4606 93.25H27.3764C20.7032 93.25 14.7064 87.8991 14.5898 81.2233V53.8663C14.5898 51.2446 16.3052 48.9316 18.814 48.1707Z" fill="url(#paint2_linear_5067_116295)"/>
<defs>
<linearGradient id="paint0_linear_5067_116295" x1="49.3064" y1="2.079" x2="80.3635" y2="93.6597" gradientUnits="userSpaceOnUse">
<stop stop-color="#F5D45E"/>
<stop offset="1" stop-color="#FF9600"/>
</linearGradient>
<linearGradient id="paint1_linear_5067_116295" x1="49.3064" y1="2.079" x2="80.3635" y2="93.6597" gradientUnits="userSpaceOnUse">
<stop stop-color="#F5D45E"/>
<stop offset="1" stop-color="#FF9600"/>
</linearGradient>
<linearGradient id="paint2_linear_5067_116295" x1="49.3064" y1="2.079" x2="80.3635" y2="93.6597" gradientUnits="userSpaceOnUse">
<stop stop-color="#F5D45E"/>
<stop offset="1" stop-color="#FF9600"/>
</linearGradient>
</defs>
</svg>
