<svg width="24" height="24" viewBox="0 0 24 24" fill="none" xmlns="http://www.w3.org/2000/svg">
<path d="M3.55859 6.99947C3.55859 6.60434 3.79126 6.24626 4.15231 6.08573L3.74602 5.17198L4.15231 6.08573L11.5978 2.7752L11.1915 1.86146L11.5978 2.7752C11.8565 2.66015 12.1519 2.6602 12.4106 2.77533L19.8486 6.0854C20.2095 6.246 20.442 6.604 20.442 6.99901V17.4611C20.442 17.8735 20.1888 18.2436 19.8045 18.3931L12.3666 21.2861C12.1335 21.3768 11.8749 21.3768 11.6418 21.2862L4.19636 18.3928C3.81188 18.2433 3.55859 17.8732 3.55859 17.4607V6.99947Z" stroke="white" stroke-width="2"/>
<path d="M15.1554 8.46094V15.8109H13.5605L10.4504 10.884V15.8109H8.85547V8.46094H10.4504L13.5658 13.3929V8.46094H15.1554Z" fill="white"/>
</svg>
