<svg width="24" height="25" viewBox="0 0 24 25" fill="none" xmlns="http://www.w3.org/2000/svg">
<path fill-rule="evenodd" clip-rule="evenodd" d="M3 4.625C3 3.17525 4.17525 2 5.625 2H9.375C9.99632 2 10.5 2.50369 10.5 3.125C10.5 3.74632 9.99632 4.25 9.375 4.25H5.625C5.4179 4.25 5.25 4.4179 5.25 4.625V20.375C5.25 20.5822 5.4179 20.75 5.625 20.75H9.375C9.99632 20.75 10.5 21.2537 10.5 21.875C10.5 22.4963 9.99632 23 9.375 23H5.625C4.17525 23 3 21.8248 3 20.375V4.625ZM18.659 11.375H10.125C9.50372 11.375 9.00003 11.8787 9.00003 12.5C9.00003 13.1213 9.50372 13.625 10.125 13.625H18.659L15.7046 16.5796C15.2652 17.0189 15.2652 17.7311 15.7046 18.1705C16.1439 18.6098 16.8561 18.6098 17.2955 18.1705L22.1705 13.2955C22.6098 12.8562 22.6098 12.1438 22.1705 11.7045L17.2955 6.8295C16.8561 6.39017 16.1439 6.39017 15.7046 6.8295C15.2652 7.26884 15.2652 7.98116 15.7046 8.4205L18.659 11.375Z" fill="white"/>
</svg>
