<svg width="19" height="15" viewBox="0 0 19 15" fill="none" xmlns="http://www.w3.org/2000/svg">
<path d="M15.8806 1.73554C14.7308 1.19758 13.5014 0.806607 12.216 0.583984C12.0582 0.869378 11.8738 1.25324 11.7466 1.5586C10.3803 1.35312 9.02651 1.35312 7.68529 1.5586C7.55817 1.25324 7.36956 0.869378 7.21029 0.583984C5.92357 0.806607 4.69273 1.19901 3.54293 1.73839C1.22376 5.24296 0.595069 8.66048 0.909414 12.0295C2.44761 13.1782 3.93831 13.876 5.40384 14.3326C5.76569 13.8346 6.08842 13.3052 6.36643 12.7472C5.83694 12.546 5.3298 12.2978 4.85061 12.0095C4.97774 11.9153 5.10209 11.8169 5.22223 11.7155C8.14493 13.0826 11.3205 13.0826 14.2083 11.7155C14.3299 11.8169 14.4542 11.9153 14.5799 12.0095C14.0993 12.2992 13.5908 12.5475 13.0613 12.7487C13.3393 13.3052 13.6606 13.836 14.0239 14.334C15.4908 13.8774 16.9829 13.1796 18.5211 12.0295C18.8899 8.12395 17.891 4.73782 15.8806 1.73554ZM6.76461 9.95758C5.88724 9.95758 5.16773 9.1385 5.16773 8.14107C5.16773 7.14364 5.87188 6.32315 6.76461 6.32315C7.65736 6.32315 8.37685 7.1422 8.36149 8.14107C8.36287 9.1385 7.65736 9.95758 6.76461 9.95758ZM12.6659 9.95758C11.7886 9.95758 11.069 9.1385 11.069 8.14107C11.069 7.14364 11.7732 6.32315 12.6659 6.32315C13.5587 6.32315 14.2782 7.1422 14.2628 8.14107C14.2628 9.1385 13.5587 9.95758 12.6659 9.95758Z" fill="white"/>
</svg>
