<svg width="115" height="115" viewBox="0 0 115 115" fill="none" xmlns="http://www.w3.org/2000/svg">
<path fill-rule="evenodd" clip-rule="evenodd" d="M57.5 110.197C86.6035 110.197 110.197 86.6035 110.197 57.5C110.197 28.3965 86.6035 4.80344 57.5 4.80344C28.3965 4.80344 4.80344 28.3965 4.80344 57.5C4.80344 86.6035 28.3965 110.197 57.5 110.197ZM57.5 115C89.2564 115 115 89.2564 115 57.5C115 25.7436 89.2564 0 57.5 0C25.7436 0 0 25.7436 0 57.5C0 89.2564 25.7436 115 57.5 115Z" fill="#3F3F46" fill-opacity="0.4"/>
<path fill-rule="evenodd" clip-rule="evenodd" d="M69.1168 96.3917C72.9596 86.6775 75.4421 72.9291 75.4421 57.5C75.4421 42.0709 72.9596 28.3225 69.1168 18.6083C67.1899 13.7371 65.0149 10.1195 62.8453 7.7997C60.6831 5.48779 58.8738 4.80344 57.5 4.80344C56.1262 4.80344 54.3167 5.48779 52.1544 7.7997C49.9848 10.1195 47.8098 13.7371 45.8829 18.6083C42.0401 28.3225 39.5576 42.0709 39.5576 57.5C39.5576 72.9291 42.0401 86.6775 45.8829 96.3917C47.8098 101.263 49.9848 104.88 52.1544 107.2C54.3167 109.512 56.1262 110.197 57.5 110.197C58.8738 110.197 60.6831 109.512 62.8453 107.2C65.0149 104.88 67.1899 101.263 69.1168 96.3917ZM57.5 115C70.0621 115 80.2456 89.2564 80.2456 57.5C80.2456 25.7436 70.0621 0 57.5 0C44.9379 0 34.7542 25.7436 34.7542 57.5C34.7542 89.2564 44.9379 115 57.5 115Z" fill="#3F3F46" fill-opacity="0.4"/>
<path fill-rule="evenodd" clip-rule="evenodd" d="M102.568 26.984L13.2803 26.984V22.1806L102.568 22.1806V26.984Z" fill="#3F3F46" fill-opacity="0.4"/>
<path fill-rule="evenodd" clip-rule="evenodd" d="M112.174 60.043L3.67295 60.043L3.67295 55.2395L112.174 55.2395V60.043Z" fill="#3F3F46" fill-opacity="0.4"/>
<path fill-rule="evenodd" clip-rule="evenodd" d="M99.7421 95.9273L15.2581 95.9273V91.1238L99.7421 91.1239V95.9273Z" fill="#3F3F46" fill-opacity="0.4"/>
</svg>
