<svg width="17" height="17" viewBox="0 0 17 17" fill="none" xmlns="http://www.w3.org/2000/svg">
<path d="M12.0441 6.88781C12.3186 6.61322 12.3186 6.16803 12.0441 5.89344C11.7695 5.61885 11.3243 5.61885 11.0497 5.89344L7.32812 9.61501L5.95031 8.23719C5.67572 7.9626 5.23053 7.9626 4.95594 8.23719C4.68135 8.51178 4.68135 8.95697 4.95594 9.23156L6.83094 11.1066C7.10553 11.3811 7.55072 11.3811 7.82531 11.1066L12.0441 6.88781Z" fill="#959595"/>
<path fill-rule="evenodd" clip-rule="evenodd" d="M1 8.5C1 4.35786 4.35786 1 8.5 1C12.6421 1 16 4.35786 16 8.5C16 12.6421 12.6421 16 8.5 16C4.35786 16 1 12.6421 1 8.5ZM2.40625 8.5C2.40625 5.13451 5.13451 2.40625 8.5 2.40625C11.8655 2.40625 14.5938 5.13451 14.5938 8.5C14.5938 11.8655 11.8655 14.5938 8.5 14.5938C5.13451 14.5938 2.40625 11.8655 2.40625 8.5Z" fill="#959595"/>
<path d="M12.0441 6.88781C12.3186 6.61322 12.3186 6.16803 12.0441 5.89344C11.7695 5.61885 11.3243 5.61885 11.0497 5.89344L7.32812 9.61501L5.95031 8.23719C5.67572 7.9626 5.23053 7.9626 4.95594 8.23719C4.68135 8.51178 4.68135 8.95697 4.95594 9.23156L6.83094 11.1066C7.10553 11.3811 7.55072 11.3811 7.82531 11.1066L12.0441 6.88781Z" stroke="#959595" stroke-width="0.183487" stroke-linecap="round" stroke-linejoin="round"/>
<path fill-rule="evenodd" clip-rule="evenodd" d="M1 8.5C1 4.35786 4.35786 1 8.5 1C12.6421 1 16 4.35786 16 8.5C16 12.6421 12.6421 16 8.5 16C4.35786 16 1 12.6421 1 8.5ZM2.40625 8.5C2.40625 5.13451 5.13451 2.40625 8.5 2.40625C11.8655 2.40625 14.5938 5.13451 14.5938 8.5C14.5938 11.8655 11.8655 14.5938 8.5 14.5938C5.13451 14.5938 2.40625 11.8655 2.40625 8.5Z" stroke="#959595" stroke-width="0.183487" stroke-linecap="round" stroke-linejoin="round"/>
</svg>
