<svg width="22" height="22" viewBox="0 0 22 22" fill="none" xmlns="http://www.w3.org/2000/svg">
<path fill-rule="evenodd" clip-rule="evenodd" d="M13.9653 1.83398H19.8128C20.0076 1.83398 20.1654 1.99183 20.1654 2.18655V8.03411C20.1654 8.3482 19.7856 8.50551 19.5635 8.2834L17.3876 6.10753L12.0992 11.396C11.6861 11.809 11.0164 11.809 10.6034 11.396C10.1903 10.9829 10.1903 10.3132 10.6034 9.90018L15.8919 4.61172L13.716 2.43585C13.4939 2.21375 13.6511 1.83398 13.9653 1.83398ZM4.29998 3.24424C2.93697 3.24424 1.83203 4.34918 1.83203 5.71219V17.6994C1.83203 19.0624 2.93697 20.1673 4.29998 20.1673H16.2872C17.6502 20.1673 18.7551 19.0624 18.7551 17.6994V12.7635C18.7551 12.1793 18.2815 11.7058 17.6974 11.7058C17.1133 11.7058 16.6397 12.1793 16.6397 12.7635V17.6994C16.6397 17.8941 16.4819 18.0519 16.2872 18.0519H4.29998C4.10527 18.0519 3.94742 17.8941 3.94742 17.6994V5.71219C3.94742 5.51748 4.10527 5.35963 4.29998 5.35963H9.23588C9.82002 5.35963 10.2936 4.88608 10.2936 4.30193C10.2936 3.71779 9.82002 3.24424 9.23588 3.24424H4.29998Z" fill="white"/>
</svg>
