<svg width="20" height="24" viewBox="0 0 20 24" fill="none" xmlns="http://www.w3.org/2000/svg">
<path d="M13.3508 1.98665C13.3872 2.0483 13.339 2.12449 13.2675 2.12449C11.8181 2.12449 10.64 3.27195 10.6123 4.69781C10.1161 4.60515 9.60185 4.59819 9.09386 4.68378C9.05877 3.26443 7.8836 2.12449 6.43904 2.12449C6.3674 2.12449 6.31922 2.04824 6.35564 1.98655C7.0572 0.798381 8.36086 0 9.85319 0C11.3456 0 12.6493 0.798428 13.3508 1.98665Z" fill="white"/>
<path d="M17.6433 10.8053C18.1363 10.9546 18.6008 10.5213 18.4147 10.041C17.0321 6.47149 12.9399 5.00915 9.83334 5.00915C6.72074 5.00915 2.53734 6.51878 1.24476 10.0632C1.07074 10.5404 1.53404 10.9594 2.01969 10.8106L9.46447 8.52936C9.67937 8.46351 9.90901 8.46313 10.1241 8.52827L17.6433 10.8053Z" fill="white"/>
<path d="M1.1721 11.4925L9.47073 8.9756C9.68434 8.91082 9.91234 8.91064 10.1261 8.9751L18.4768 11.4937C19.1742 11.704 19.6514 12.3464 19.6514 13.0747V20.6631C19.619 22.5154 17.9551 24 16.1034 24H13.0279C12.7239 24 12.4777 23.7541 12.4777 23.4501V20.7895C12.4777 19.7419 13.0977 18.7937 14.0571 18.374C15.3432 17.8114 16.8647 17.0505 17.1509 15.5235C17.2432 15.0306 16.9219 14.5552 16.4303 14.4575C15.1872 14.2104 13.8092 14.3059 12.6438 14.8271C11.3209 15.4188 10.9748 16.4031 10.8467 17.725L10.6914 19.149C10.644 19.5843 10.2359 19.9177 9.79831 19.9177C9.34561 19.9177 9.00615 19.5729 8.95706 19.1226L8.80466 17.725C8.69492 16.5927 8.49598 15.4928 7.32548 14.9693C5.99028 14.3721 4.64849 14.1738 3.22109 14.4575C2.7295 14.5552 2.40812 15.0306 2.50048 15.5235C2.78915 17.0638 4.29868 17.8073 5.59423 18.374C6.55366 18.7937 7.17368 19.7419 7.17368 20.7895V23.4496C7.17368 23.7536 6.92757 24 6.62356 24H3.54795C1.6963 24 0.0323384 22.5154 0 20.6631V13.0728C0 12.3453 0.475984 11.7036 1.1721 11.4925Z" fill="white"/>
</svg>
