<svg width="16" height="17" viewBox="0 0 16 17" fill="none" xmlns="http://www.w3.org/2000/svg">
<path d="M9.40864 8.49915L13.7045 4.21268C14.0962 3.82088 14.0962 3.18565 13.7045 2.79385C13.3127 2.40205 12.6776 2.40205 12.2859 2.79385L8 7.09031L3.71414 2.79385C3.3224 2.40205 2.68726 2.40205 2.29551 2.79385C1.90377 3.18565 1.90377 3.82088 2.29551 4.21268L6.59136 8.49915L2.29551 12.7856C2.10638 12.9732 2 13.2286 2 13.495C2 13.7614 2.10638 14.0168 2.29551 14.2044C2.4831 14.3936 2.73845 14.5 3.00483 14.5C3.27121 14.5 3.52656 14.3936 3.71414 14.2044L8 9.90799L12.2859 14.2044C12.4734 14.3936 12.7288 14.5 12.9952 14.5C13.2616 14.5 13.5169 14.3936 13.7045 14.2044C13.8936 14.0168 14 13.7614 14 13.495C14 13.2286 13.8936 12.9732 13.7045 12.7856L9.40864 8.49915Z" fill="white"/>
</svg>
