<svg width="40" height="40" viewBox="0 0 40 40" fill="none" xmlns="http://www.w3.org/2000/svg">
<g clip-path="url(#clip0_8013_258652)">
<path d="M0.507812 19.9992C0.507812 30.7654 9.23518 39.4927 20.0012 39.4927C30.7673 39.4927 39.4952 30.7651 39.4952 19.9992C39.4952 9.23325 30.7673 0.505859 20.0012 0.505859C9.23518 0.505859 0.507812 9.23323 0.507812 19.9992Z" fill="#0C0C4F" stroke="url(#paint0_linear_8013_258652)" stroke-width="1.01266"/>
<path fill-rule="evenodd" clip-rule="evenodd" d="M11.1781 15.2878L11.6718 13.7626C11.7721 13.4523 12.017 13.2109 12.3283 13.1158L13.8611 12.6444C14.0732 12.5796 14.0749 12.2803 13.8645 12.2121L12.3387 11.7183C12.029 11.618 11.7876 11.3731 11.6919 11.0618L11.2211 9.52907C11.1563 9.31747 10.857 9.31517 10.7887 9.52618L10.295 11.0515C10.1947 11.3611 9.94983 11.6025 9.63846 11.6983L8.10573 12.169C7.89358 12.2344 7.89127 12.5332 8.10229 12.6014L9.62813 13.0951C9.93778 13.1954 10.1792 13.4409 10.2749 13.7522L10.7457 15.2844C10.8105 15.4965 11.1098 15.4988 11.1781 15.2878Z" fill="#FAFAFA"/>
<path fill-rule="evenodd" clip-rule="evenodd" d="M35.4052 14.4001C34.7733 13.6935 33.7872 13.2957 32.8284 13.1326C31.8621 12.9759 30.8487 12.9904 29.8948 13.1599C27.9644 13.4865 26.2107 14.2858 24.6811 15.2718C23.8868 15.7557 23.2095 16.3157 22.5077 16.886C22.1696 17.1744 21.8613 17.4815 21.5402 17.7842L20.6629 18.6571C19.7097 19.6535 18.7702 20.561 17.8611 21.3132C16.9484 22.062 16.095 22.6307 15.2541 23.0278C14.4136 23.427 13.5144 23.6618 12.3422 23.6993C11.1804 23.7403 9.80583 23.5306 8.3355 23.1845C6.85728 22.84 5.30497 22.3488 3.57031 21.9262C4.17558 23.6053 5.08702 25.0892 6.25722 26.4457C7.44115 27.7786 8.9195 28.9933 10.8187 29.7923C12.6904 30.609 15.0425 30.9022 17.2419 30.4599C19.4471 30.0353 21.3822 29.0151 22.9464 27.8348C24.5146 26.6427 25.7834 25.2846 26.853 23.8728C27.1482 23.4827 27.3044 23.2644 27.5181 22.9595L28.1087 22.0847C28.5191 21.5436 28.8927 20.9275 29.2988 20.3914C30.0953 19.2685 30.8806 18.147 31.793 17.1137C32.2522 16.5896 32.7365 16.0884 33.3082 15.6066C33.5933 15.3715 33.9014 15.1413 34.2426 14.9341C34.5889 14.7105 34.9548 14.5354 35.4052 14.4001Z" fill="url(#paint1_linear_8013_258652)"/>
<path fill-rule="evenodd" clip-rule="evenodd" d="M35.4052 14.4004C34.7264 12.6875 33.4644 11.2456 31.7705 10.1817C30.0869 9.12936 27.7487 8.59235 25.4315 9.05012C24.2868 9.27151 23.1778 9.69774 22.2046 10.2653C21.2358 10.8307 20.3677 11.5112 19.6161 12.2413C19.2409 12.6076 18.9003 12.9897 18.562 13.3739L17.6851 14.4919L16.3307 16.2917C14.604 18.6072 12.7447 21.3209 9.69333 22.125C6.69781 22.9143 5.39859 22.2152 3.57031 21.9264C3.90462 22.7895 4.31869 23.6277 4.88006 24.365C5.43097 25.1173 6.08171 25.8238 6.89072 26.4296C7.29955 26.7205 7.7312 27.0076 8.21059 27.2511C8.68783 27.4863 9.20247 27.6934 9.75178 27.8491C10.8444 28.1486 12.0746 28.2536 13.2657 28.0924C14.4573 27.9334 15.5963 27.5559 16.5919 27.0544C17.5948 26.5574 18.4685 25.9524 19.2486 25.3139C20.7994 24.0261 22.0056 22.6031 23.0245 21.1648C23.537 20.4456 24.0022 19.7129 24.4325 18.98L24.9389 18.1075C25.0937 17.8524 25.2503 17.5958 25.4092 17.3568C26.051 16.3965 26.6786 15.6266 27.4408 15.0487C28.1925 14.4558 29.2393 14.0178 30.6381 13.916C32.031 13.813 33.6391 14.0033 35.4052 14.4004Z" fill="#FAFAFA"/>
<path fill-rule="evenodd" clip-rule="evenodd" d="M27.8672 28.632C27.8672 29.8902 28.8877 30.9105 30.1457 30.9105C31.4039 30.9105 32.4229 29.8902 32.4229 28.632C32.4229 27.374 31.4039 26.3535 30.1457 26.3535C28.8877 26.3535 27.8672 27.374 27.8672 28.632Z" fill="url(#paint2_linear_8013_258652)"/>
</g>
<defs>
<linearGradient id="paint0_linear_8013_258652" x1="37.8496" y1="10.2527" x2="1.54788" y2="16.9886" gradientUnits="userSpaceOnUse">
<stop stop-color="#EC796B"/>
<stop offset="1" stop-color="#E175B1"/>
</linearGradient>
<linearGradient id="paint1_linear_8013_258652" x1="35.235" y1="13.7991" x2="7.21578" y2="29.3675" gradientUnits="userSpaceOnUse">
<stop stop-color="#EC796B"/>
<stop offset="1" stop-color="#E175B1"/>
</linearGradient>
<linearGradient id="paint2_linear_8013_258652" x1="32.4214" y1="27.0338" x2="27.8641" y2="27.5158" gradientUnits="userSpaceOnUse">
<stop stop-color="#EC796B"/>
<stop offset="1" stop-color="#E175B1"/>
</linearGradient>
<clipPath id="clip0_8013_258652">
<rect width="40" height="40" fill="white"/>
</clipPath>
</defs>
</svg>
