<svg width="22" height="22" viewBox="0 0 22 22" fill="none" xmlns="http://www.w3.org/2000/svg">
<g opacity="0.5">
<g clip-path="url(#clip0_5332_111018)">
<path fill-rule="evenodd" clip-rule="evenodd" d="M6 6.25V8.625H5.6875C5.10734 8.625 4.55094 8.84394 4.1407 9.23366C3.73046 9.62339 3.5 10.152 3.5 10.7031V17.2344C3.5 18.3815 4.48 19.3125 5.6875 19.3125H16.3125C16.8926 19.3125 17.449 19.0935 17.8593 18.7038C18.2695 18.3141 18.5 17.7855 18.5 17.2344V10.7031C18.5 10.152 18.2695 9.62339 17.8593 9.23366C17.449 8.84394 16.8926 8.625 16.3125 8.625H16V6.25C16 4.99022 15.4732 3.78204 14.5355 2.89124C13.5979 2.00044 12.3261 1.5 11 1.5C9.67391 1.5 8.40215 2.00044 7.46446 2.89124C6.52679 3.78204 6 4.99022 6 6.25ZM14.125 8.625V6.25C14.125 5.46264 13.7957 4.70752 13.2097 4.15077C12.6237 3.59403 11.8288 3.28125 11 3.28125C10.1712 3.28125 9.37634 3.59403 8.79029 4.15077C8.20424 4.70752 7.875 5.46264 7.875 6.25V8.625H14.125ZM16 10.4062H16.3125C16.3954 10.4062 16.4749 10.4375 16.5335 10.4932C16.5921 10.5489 16.625 10.6244 16.625 10.7031V17.2344C16.625 17.3131 16.5921 17.3886 16.5335 17.4443C16.4749 17.5 16.3954 17.5312 16.3125 17.5312H5.6875C5.60462 17.5312 5.52514 17.5 5.46653 17.4443C5.40793 17.3886 5.375 17.3131 5.375 17.2344V10.7031C5.375 10.6244 5.40793 10.5489 5.46653 10.4932C5.52514 10.4375 5.60462 10.4062 5.6875 10.4062H16Z" fill="white"/>
</g>
</g>
<defs>
<clipPath id="clip0_5332_111018">
<rect width="20" height="19" fill="white" transform="translate(1 1.5)"/>
</clipPath>
</defs>
</svg>
