<svg width="24" height="24" viewBox="0 0 24 24" fill="none" xmlns="http://www.w3.org/2000/svg">
<circle cx="12" cy="12" r="10" fill="white"/>
<path d="M17.198 9.63545C17.6007 9.23273 17.6007 8.57977 17.198 8.17705C16.7952 7.77432 16.1423 7.77432 15.7395 8.17705L10.2812 13.6353L8.26045 11.6145C7.85773 11.2118 7.20477 11.2118 6.80205 11.6145C6.39932 12.0173 6.39932 12.6702 6.80205 13.073L9.55205 15.823C9.95477 16.2257 10.6077 16.2257 11.0105 15.823L17.198 9.63545Z" fill="#00C853"/>
<path fill-rule="evenodd" clip-rule="evenodd" d="M1 12C1 5.92487 5.92487 1 12 1C18.0751 1 23 5.92487 23 12C23 18.0751 18.0751 23 12 23C5.92487 23 1 18.0751 1 12ZM3.0625 12C3.0625 7.06396 7.06396 3.0625 12 3.0625C16.936 3.0625 20.9375 7.06396 20.9375 12C20.9375 16.936 16.936 20.9375 12 20.9375C7.06396 20.9375 3.0625 16.936 3.0625 12Z" fill="#00C853"/>
<path d="M17.198 9.63545C17.6007 9.23273 17.6007 8.57977 17.198 8.17705C16.7952 7.77432 16.1423 7.77432 15.7395 8.17705L10.2812 13.6353L8.26045 11.6145C7.85773 11.2118 7.20477 11.2118 6.80205 11.6145C6.39932 12.0173 6.39932 12.6702 6.80205 13.073L9.55205 15.823C9.95477 16.2257 10.6077 16.2257 11.0105 15.823L17.198 9.63545Z" stroke="#00C853" stroke-width="0.2" stroke-linecap="round" stroke-linejoin="round"/>
<path fill-rule="evenodd" clip-rule="evenodd" d="M1 12C1 5.92487 5.92487 1 12 1C18.0751 1 23 5.92487 23 12C23 18.0751 18.0751 23 12 23C5.92487 23 1 18.0751 1 12ZM3.0625 12C3.0625 7.06396 7.06396 3.0625 12 3.0625C16.936 3.0625 20.9375 7.06396 20.9375 12C20.9375 16.936 16.936 20.9375 12 20.9375C7.06396 20.9375 3.0625 16.936 3.0625 12Z" stroke="#00C853" stroke-width="0.2" stroke-linecap="round" stroke-linejoin="round"/>
</svg>
