<svg width="20" height="17" viewBox="0 0 20 17" fill="none" xmlns="http://www.w3.org/2000/svg">
<path d="M9.40146 4.94591L9.44344 5.63799L8.74392 5.55325C6.19769 5.22839 3.97324 4.12672 2.08455 2.27646L1.16119 1.3584L0.923358 2.03636C0.419708 3.54763 0.741484 5.14365 1.79076 6.21708C2.35037 6.81029 2.22445 6.89503 1.25912 6.54193C0.923358 6.42894 0.629562 6.34419 0.601582 6.38657C0.50365 6.48543 0.839416 7.77072 1.10523 8.27919C1.46898 8.98539 2.21046 9.67747 3.0219 10.0871L3.70742 10.4119L2.89599 10.426C2.11253 10.426 2.08455 10.4402 2.16849 10.7368C2.4483 11.6548 3.55353 12.6294 4.78467 13.0531L5.65207 13.3497L4.8966 13.8017C3.77737 14.4514 2.46229 14.8186 1.1472 14.8469C0.51764 14.861 0 14.9175 0 14.9599C0 15.1011 1.70681 15.8921 2.70012 16.2028C5.68005 17.1209 9.21959 16.7254 11.8777 15.1576C13.7664 14.0418 15.6551 11.8243 16.5365 9.67747C17.0122 8.53342 17.4878 6.44306 17.4878 5.44025C17.4878 4.79055 17.5298 4.7058 18.3133 3.92898C18.7749 3.47701 19.2086 2.98267 19.2926 2.84143C19.4325 2.57307 19.4185 2.57307 18.705 2.81318C17.5158 3.2369 17.3479 3.1804 17.9355 2.54482C18.3692 2.09285 18.8869 1.27366 18.8869 1.03355C18.8869 0.991175 18.677 1.0618 18.4392 1.18891C18.1874 1.33015 17.6277 1.54201 17.208 1.66913L16.4526 1.90924L15.767 1.44314C15.3893 1.18891 14.8577 0.90643 14.5779 0.821686C13.8644 0.623949 12.7731 0.652197 12.1296 0.878182C10.3808 1.51377 9.27555 3.15216 9.40146 4.94591Z" fill="white"/>
</svg>
