<svg width="29" height="29" viewBox="0 0 29 29" fill="none" xmlns="http://www.w3.org/2000/svg">
<path d="M0 16.5C0 9.87258 5.37258 4.5 12 4.5C18.6274 4.5 24 9.87258 24 16.5C24 23.1274 18.6274 28.5 12 28.5C5.37258 28.5 0 23.1274 0 16.5Z" fill="white"/>
<path d="M11.6406 14.2539L11.6658 14.6692L11.2461 14.6183C9.71843 14.4234 8.38383 13.7625 7.25067 12.6524L6.69668 12.1015L6.55399 12.5083C6.25181 13.415 6.44487 14.3726 7.0744 15.0166C7.41015 15.3725 7.33461 15.4234 6.75544 15.2115C6.55399 15.1437 6.37772 15.0929 6.36093 15.1183C6.30218 15.1776 6.50363 15.9487 6.66311 16.2538C6.88134 16.6775 7.32621 17.0927 7.81305 17.3385L8.22434 17.5334L7.73751 17.5419C7.26746 17.5419 7.25067 17.5503 7.30103 17.7283C7.46891 18.2791 8.13201 18.8638 8.87066 19.118L9.39108 19.296L8.93781 19.5672C8.26631 19.957 7.4773 20.1773 6.68829 20.1942C6.31057 20.2027 6 20.2366 6 20.262C6 20.3468 7.02404 20.8213 7.61999 21.0077C9.40786 21.5586 11.5315 21.3213 13.1263 20.3807C14.2595 19.7112 15.3926 18.3808 15.9214 17.0927C16.2068 16.4063 16.4922 15.1522 16.4922 14.5505C16.4922 14.1607 16.5174 14.1099 16.9874 13.6438C17.2644 13.3726 17.5246 13.0761 17.575 12.9913C17.6589 12.8303 17.6505 12.8303 17.2224 12.9744C16.509 13.2286 16.4083 13.1947 16.7608 12.8134C17.021 12.5422 17.3316 12.0507 17.3316 11.9066C17.3316 11.8812 17.2057 11.9236 17.063 11.9999C16.9119 12.0846 16.5761 12.2117 16.3243 12.288L15.8711 12.432L15.4598 12.1524C15.2331 11.9999 14.9142 11.8304 14.7463 11.7795C14.3182 11.6609 13.6635 11.6778 13.2774 11.8134C12.2282 12.1948 11.5651 13.1777 11.6406 14.2539Z" fill="#55ACEE"/>
<circle cx="22" cy="7" r="5" fill="white"/>
<path d="M25.099 5.31773C25.3003 5.11636 25.3003 4.78989 25.099 4.58852C24.8976 4.38716 24.5711 4.38716 24.3698 4.58852L21.6406 7.31767L20.6302 6.30727C20.4289 6.10591 20.1024 6.10591 19.901 6.30727C19.6997 6.50864 19.6997 6.83511 19.901 7.03648L21.276 8.41148C21.4774 8.61284 21.8039 8.61284 22.0052 8.41148L25.099 5.31773Z" fill="#00C853"/>
<path fill-rule="evenodd" clip-rule="evenodd" d="M17 6.5C17 3.46243 19.4624 1 22.5 1C25.5376 1 28 3.46243 28 6.5C28 9.53757 25.5376 12 22.5 12C19.4624 12 17 9.53757 17 6.5ZM18.0313 6.5C18.0313 4.03198 20.032 2.03125 22.5 2.03125C24.968 2.03125 26.9688 4.03198 26.9688 6.5C26.9688 8.96802 24.968 10.9688 22.5 10.9688C20.032 10.9688 18.0313 8.96802 18.0313 6.5Z" fill="#00C853"/>
<path d="M25.099 5.31773C25.3003 5.11636 25.3003 4.78989 25.099 4.58852C24.8976 4.38716 24.5711 4.38716 24.3698 4.58852L21.6406 7.31767L20.6302 6.30727C20.4289 6.10591 20.1024 6.10591 19.901 6.30727C19.6997 6.50864 19.6997 6.83511 19.901 7.03648L21.276 8.41148C21.4774 8.61284 21.8039 8.61284 22.0052 8.41148L25.099 5.31773Z" stroke="#00C853" stroke-width="0.2" stroke-linecap="round" stroke-linejoin="round"/>
<path fill-rule="evenodd" clip-rule="evenodd" d="M17 6.5C17 3.46243 19.4624 1 22.5 1C25.5376 1 28 3.46243 28 6.5C28 9.53757 25.5376 12 22.5 12C19.4624 12 17 9.53757 17 6.5ZM18.0313 6.5C18.0313 4.03198 20.032 2.03125 22.5 2.03125C24.968 2.03125 26.9688 4.03198 26.9688 6.5C26.9688 8.96802 24.968 10.9688 22.5 10.9688C20.032 10.9688 18.0313 8.96802 18.0313 6.5Z" stroke="#00C853" stroke-width="0.2" stroke-linecap="round" stroke-linejoin="round"/>
</svg>
