<svg width="24" height="25" viewBox="0 0 24 25" fill="none" xmlns="http://www.w3.org/2000/svg">
<path d="M0 12.5C0 5.87258 5.37258 0.5 12 0.5C18.6274 0.5 24 5.87258 24 12.5C24 19.1274 18.6274 24.5 12 24.5C5.37258 24.5 0 19.1274 0 12.5Z" fill="white"/>
<path d="M11.6406 10.2537L11.6658 10.6689L11.2461 10.6181C9.71843 10.4232 8.38383 9.76221 7.25067 8.65211L6.69668 8.1013L6.55399 8.50805C6.25181 9.41477 6.44487 10.3723 7.0744 11.0164C7.41015 11.3723 7.33461 11.4231 6.75544 11.2113C6.55399 11.1435 6.37772 11.0926 6.36093 11.1181C6.30218 11.1774 6.50363 11.9485 6.66311 12.2536C6.88134 12.6773 7.32621 13.0925 7.81305 13.3382L8.22434 13.5331L7.73751 13.5416C7.26746 13.5416 7.25067 13.5501 7.30103 13.728C7.46891 14.2789 8.13201 14.8636 8.87066 15.1178L9.39108 15.2957L8.93781 15.5669C8.26631 15.9567 7.4773 16.177 6.68829 16.194C6.31057 16.2025 6 16.2364 6 16.2618C6 16.3465 7.02404 16.8211 7.61999 17.0075C9.40786 17.5583 11.5315 17.321 13.1263 16.3804C14.2595 15.711 15.3926 14.3805 15.9214 13.0925C16.2068 12.4061 16.4922 11.1519 16.4922 10.5503C16.4922 10.1605 16.5174 10.1096 16.9874 9.64357C17.2644 9.3724 17.5246 9.07581 17.575 8.99107C17.6589 8.83007 17.6505 8.83007 17.2224 8.97412C16.509 9.22834 16.4083 9.19445 16.7608 8.81312C17.021 8.54195 17.3316 8.05046 17.3316 7.9064C17.3316 7.88098 17.2057 7.92335 17.063 7.99961C16.9119 8.08435 16.5761 8.21146 16.3243 8.28773L15.8711 8.43179L15.4598 8.15214C15.2331 7.99961 14.9142 7.83013 14.7463 7.77929C14.3182 7.66065 13.6635 7.6776 13.2774 7.81318C12.2282 8.19451 11.5651 9.1775 11.6406 10.2537Z" fill="#55ACEE"/>
</svg>
